<svg xmlns="http://www.w3.org/2000/svg" width="20" height="20" viewBox="0 0 20 20">
  <title>Freebo tray mark</title>
  <defs>
    <path id="head" d="M3.9 7.6C3.3 5.2 4 2.2 5.1 1C5.8.3 8 2.4 8.9 5.1C10 4.9 11 4.9 12 5.2C13.1 4.1 13.9 3.5 14.7 3.9C15.9 4.7 16.6 4.6 17.6 4.9C18.3 5.4 18.6 7.8 17.7 8C16.9 8.2 15.5 7.2 14.9 6.9C15.6 8 15.8 8.7 15.8 9.5C16.9 10.9 17.7 12.1 17.5 13.5C17.3 15.7 14.1 17.6 11.5 19.1C10.3 18.3 8.9 17.8 7.4 17.4C4.4 16.5 2.8 14.6 3.2 12.2L2.7 12.4C2.9 10.8 3.8 9.2 4.4 8.1Z"/>
    <mask id="face" maskUnits="userSpaceOnUse" x="0" y="0" width="20" height="20">
      <rect width="20" height="20" fill="white"/>
      <path d="M8.7 5.2C9.5 5 10.2 5 10.8 5.2C11.5 5.9 12.8 6.5 13.4 7.4C12.3 7.7 12.1 8.8 12.8 9.9C13.5 11 15.5 11.2 15.6 12.3C15.6 13.2 14.6 14.5 13.8 14.1C13.1 15 12.5 15.1 11.9 15C12.7 16.4 12.3 17.9 11.3 18.8C10.6 17.6 8.5 17 8 15.5C7.5 14.5 7.3 13.4 7.7 12.4L6.8 12.8C7.2 11.4 8.1 10.6 9.4 10.9C10.6 11.3 11 10.3 10.7 9C10.5 7.6 9.4 6.1 8.7 5.2Z" fill="black"/>
      <ellipse cx="9.3" cy="9.3" rx=".6" ry=".7" fill="black"/>
      <ellipse cx="13.9" cy="9.2" rx=".5" ry=".6" fill="black"/>
      <path d="M12.9 11.9C13.4 11.3 14.6 11.3 15 11.8C15.3 12.4 14.3 13.3 13.9 13.3C13.4 13.3 12.6 12.5 12.9 11.9Z" fill="white"/>
      <path d="M10 12.9C11 14.1 13.5 14.7 14 13" fill="none" stroke="white" stroke-width=".8" stroke-linecap="round"/>
    </mask>
  </defs>
  <use href="#head" fill="black" mask="url(#face)"/>
</svg>
